<?xml version="1.0" encoding="UTF-8"?>
<svg id="Layer_1" data-name="Layer 1" xmlns="http://www.w3.org/2000/svg" viewBox="0 0 282.28 282.28">
  <defs>
    <style>
      .cls-1 {
        fill: none;
        stroke-width: 5px;
      }

      .cls-1, .cls-2, .cls-3, .cls-4, .cls-5 {
        stroke: #252626;
        stroke-miterlimit: 10;
      }

      .cls-2 {
        font-size: 60px;
      }

      .cls-2, .cls-3 {
        font-family: BloggerSans-Bold, 'Blogger Sans';
        stroke-width: 2px;
      }

      .cls-2, .cls-3, .cls-4, .cls-5 {
        fill: #a7a9ac;
      }

      .cls-3 {
        font-size: 60.65px;
      }

      .cls-4 {
        stroke-width: .75px;
      }

      .cls-5 {
        stroke-width: 3px;
      }
    </style>
  </defs>
  <circle class="cls-1" cx="141.14" cy="141.14" r="138.64"/>
  <path class="cls-5" d="M234.32,80.13c-6.68-20.18-18.71-32.89-27.48-40.52-3.96-3.45-8.92-5.44-14.16-6.22-1.74-.26-3.51-.38-5.28-.38-1.44,0-2.88,.08-4.31,.24-1.58,.18-3.15,.45-4.68,.81-9.8,2.28-25.82,8.82-33.65,8.82h-7.74c-7.84,0-23.86-6.54-33.65-8.82-2.16-.51-4.38-.84-6.62-.97-.79-.05-1.59-.07-2.38-.07-1.77,0-3.54,.13-5.28,.38-5.24,.78-10.2,2.77-14.16,6.22-4.46,3.88-9.76,9.07-14.77,15.88-4.84,6.59-9.42,14.72-12.71,24.64-1.21,3.67-1.82,7.47-1.82,11.25v96.63c0,13.38,10.67,24.49,24.05,24.64,6.83,.08,13.01-2.66,17.48-7.12,4.4-4.4,7.13-10.49,7.13-17.2V113.39c0-.94,1.22-1.3,1.74-.52l14.64,22.38c4.48,6.84,12.1,10.97,20.28,10.97h18.54c8.35,0,16.14-4.22,20.71-11.21l14.79-22.64c.51-.79,1.74-.42,1.74,.52v75.43c0,13.44,10.89,24.33,24.33,24.33h.77c13.43,0,24.32-10.89,24.32-24.32V91.39c0-3.78-.61-7.59-1.82-11.26Zm-51.8-32.49c3.26,.02,5.89,2.67,5.87,5.93-.02,3.25-2.67,5.88-5.94,5.87-3.25-.02-5.88-2.68-5.86-5.94,.01-3.26,2.68-5.89,5.93-5.86Zm-87.94,7.85l.04-7.2c0-.34,.28-.6,.62-.6l8.05,.04c.34,0,.62,.28,.62,.62l-.05,7.14-.02,3.28c0,.16-.07,.32-.19,.44l-4.04,3.92c-.24,.24-.62,.23-.86,0l-4-3.96c-.12-.12-.18-.28-.18-.44l.02-3.22Zm-1,13.67c-.12,.11-.28,.17-.44,.17l-10.41-.07c-.34,0-.62-.27-.62-.61l.05-8.06c0-.34,.28-.6,.63-.6l10.4,.07c.16,0,.32,.07,.44,.18l3.92,4.04c.23,.25,.23,.63,0,.86l-3.96,4.01Zm10.12,12.01c0,.33-.28,.61-.62,.61l-8.04-.05c-.34,0-.61-.28-.61-.62l.05-10.41c0-.17,.07-.32,.19-.44l4.05-3.92c.24-.23,.62-.23,.86,0l4,3.97c.12,.12,.19,.27,.19,.44l-.06,10.42Zm.99-11.95l-3.92-4.05c-.23-.24-.23-.62,0-.86l3.97-4c.11-.11,.27-.18,.44-.18l8.48,.05h.97s.96,.01,.96,.01c.34,0,.61,.29,.61,.62v1.9s-.02,1.56-.02,1.56l-.03,4.58c0,.35-.28,.62-.62,.61l-10.41-.06c-.17,0-.33-.07-.44-.19Zm16.04,50.57c-7.17,0-12.97-5.81-12.97-12.98s5.81-12.97,12.97-12.97,12.97,5.81,12.97,12.97-5.81,12.98-12.97,12.98Zm17.03-53.48c0,.56-.45,1.01-1.01,1.01h-6.09c-.56,0-1.01-.45-1.01-1.01v-1.21c0-.56,.45-1.01,1.01-1.01h6.09c.56,0,1.01,.45,1.01,1.01v1.22Zm6.24,0v-1.22c0-.56,.45-1.01,1.01-1.01h6.09c.56,0,1.01,.45,1.01,1.01v1.22c0,.56-.45,1.01-1.01,1.01h-6.1c-.56,0-1.01-.45-1.01-1.01Zm17.03,53.48c-7.17,0-12.97-5.81-12.97-12.98s5.81-12.97,12.97-12.97,12.97,5.81,12.97,12.97-5.81,12.98-12.97,12.98Zm10.17-49.09c-3.26-.02-5.88-2.68-5.87-5.93,.02-3.26,2.67-5.89,5.93-5.87,3.26,.02,5.89,2.68,5.86,5.94-.02,3.26-2.68,5.89-5.93,5.87Zm11.26,11.26c-3.26-.02-5.88-2.68-5.86-5.94,.02-3.26,2.68-5.88,5.93-5.87,3.26,.02,5.89,2.68,5.87,5.94-.02,3.25-2.68,5.89-5.94,5.87Zm11.26-11.27c-3.26-.02-5.89-2.68-5.87-5.94,.02-3.26,2.68-5.89,5.94-5.87,3.26,.02,5.88,2.68,5.87,5.94-.02,3.26-2.68,5.89-5.94,5.87Z"/>
  <text class="cls-2" transform="translate(98.8 192.6)"><tspan x="0" y="0">R</tspan></text>
  <text class="cls-3" transform="translate(148.05 193.18) scale(1.06 1)"><tspan x="0" y="0">Z</tspan></text>
  <g>
    <path class="cls-4" d="M70.01,225c.57,0,1.04,.19,1.42,.57,.39,.39,.58,.85,.58,1.37v5.22c0,.7-.22,1.32-.67,1.87-.46,.56-1.04,.91-1.75,1.04-.32,.07-.64,.13-.95,.18-1.01,.19-2.09,.29-3.24,.29-3.19,0-5.69-.86-7.49-2.58-1.68-1.61-2.53-3.72-2.53-6.33,0-2.92,1.02-5.24,3.05-6.96,1.91-1.63,4.38-2.45,7.39-2.45,.74,0,1.56,.03,2.46,.1,.52,.03,.92,.26,1.18,.67,.27,.42,.32,.85,.15,1.29,0,.01,0,.03-.01,.04-.35,.89-1.02,1.33-2.02,1.33h-2.09c-1.65,0-3.03,.61-4.15,1.83-1.14,1.24-1.64,2.72-1.49,4.42,.12,1.43,.76,2.66,1.92,3.69,1.15,1.01,2.44,1.51,3.86,1.51h.57c.3,0,.56-.11,.77-.33,.25-.25,.37-.54,.37-.88v-2.01c0-.21-.07-.39-.22-.52-.13-.13-.27-.19-.44-.19h-1.17c-.64,0-1.05-.31-1.22-.93v-.03c-.15-.53-.04-1.04,.33-1.52,.36-.47,.86-.71,1.49-.71h3.9Z"/>
    <path class="cls-4" d="M73.39,228.46c0-1.84,.63-3.41,1.88-4.72,1.24-1.3,2.76-1.95,4.54-1.96,1.57,0,2.45,.22,2.64,.65v1.47c0-.47,.17-.87,.52-1.22,.34-.34,.76-.51,1.27-.51h1.04c.52,0,.94,.17,1.28,.51,.36,.36,.53,.77,.53,1.23v10.14c0,.29-.11,.53-.32,.74-.22,.22-.49,.33-.81,.33-.56,0-1.12,0-1.68,0-.36,0-.78-.27-1.28-.8-.14-.14-.29-.22-.46-.24-.17-.03-.33,.01-.47,.11-.96,.62-1.71,.93-2.27,.93-1.79,0-3.3-.65-4.54-1.96-1.25-1.31-1.88-2.88-1.88-4.71Zm4.44-.1c0,.91,.24,1.69,.71,2.32,.46,.58,1,.88,1.63,.88,.39,.06,.77,.03,1.16-.09,.73-.25,1.1-.85,1.13-1.79v-3.14c-.16-.43-.57-.77-1.22-1.03-.74-.29-1.49-.25-2.23,.11-.35,.16-.63,.48-.84,.96-.22,.47-.33,1.01-.33,1.61v.15Z"/>
    <path class="cls-4" d="M110.08,233.04c0,.56-.2,1.04-.6,1.45-.42,.42-.94,.63-1.55,.63-.01,0-.03,0-.04,0-.61,0-1.13-.21-1.55-.63-.4-.41-.6-.89-.6-1.45v-5.66c0-.56-.2-1.03-.6-1.41-.37-.37-.82-.55-1.35-.53-.49,.02-.91,.22-1.27,.61-.36,.4-.55,.87-.55,1.42v5.57c0,.56-.2,1.04-.61,1.45-.42,.42-.94,.63-1.54,.63-.12,0-.25,0-.37,0-.61,0-1.12-.2-1.52-.61-.42-.42-.63-.91-.63-1.47v-5.66c0-.56-.19-1.03-.58-1.41-.38-.37-.83-.55-1.35-.53-.49,.02-.91,.22-1.27,.61-.36,.4-.55,.87-.55,1.42v5.57c0,.56-.21,1.05-.63,1.47-.41,.41-.91,.61-1.52,.61-.09,0-.19,0-.28,0-.6,0-1.11-.21-1.54-.63-.41-.41-.61-.89-.61-1.45v-9.5c0-.41,.14-.75,.43-1.04,.31-.32,.7-.48,1.16-.48,.49,0,.98,0,1.47,0,.45,0,.83,.16,1.14,.48,.29,.29,.43,.63,.43,1.04v-.53c-.26,.18-.31,.18-.14,.01,.22-.22,.38-.37,.48-.46,.47-.41,.98-.67,1.54-.79,2.37-.48,4.13,.23,5.28,2.13h-.27c1.29-1.26,2.31-1.97,3.06-2.12,2.08-.44,3.73,.11,4.95,1.64,1.02,1.28,1.54,2.94,1.55,4.98v4.63Z"/>
    <path class="cls-4" d="M124.78,233.77c-.08,.37-.28,.68-.6,.93-.33,.26-.71,.4-1.13,.41-1.24,0-2.52,.01-3.82,.01-.14,0-.26,0-.38-.01-.12,0-.25,.01-.38,.01-1.92,0-3.56-.66-4.91-1.97-1.34-1.3-2.01-2.87-2.01-4.7,0-1.84,.67-3.41,2.01-4.71,1.35-1.31,2.99-1.97,4.91-1.97,.14,0,.26,0,.38,.01,.12,0,.25-.01,.38-.01,1.92,0,3.55,.66,4.9,1.97,1.35,1.3,2.02,2.87,2.02,4.71h0c0,.4-.15,.74-.44,1.03-.31,.29-.69,.43-1.12,.43h-8.57c.15,.4,.5,.78,1.03,1.14,.54,.37,1.14,.56,1.8,.56h4.19c.59,0,1.07,.22,1.42,.67,.35,.43,.46,.92,.33,1.46,0,0,0,.02-.01,.03Zm-5.93-8.49c-.64,0-1.23,.18-1.76,.53-.53,.36-.88,.73-1.03,1.09,1.86,0,3.72,0,5.57,0-.15-.37-.49-.74-1.02-1.09-.53-.36-1.12-.53-1.76-.53Z"/>
    <path class="cls-4" d="M127.6,232.78c.13-.47,.41-.83,.84-1.07,.42-.24,.88-.28,1.36-.14,.7,.22,1.33,.33,1.88,.33,.9,0,1.35-.26,1.35-.77,0-.26-.09-.47-.28-.62-.22-.17-.67-.37-1.35-.61-2.56-.85-3.82-2.18-3.78-4,0-1.26,.49-2.3,1.47-3.12,1.02-.83,2.33-1.24,3.94-1.24,.8,0,1.58,.1,2.32,.29,.46,.12,.8,.36,1.04,.74,.22,.37,.27,.78,.17,1.22,0,0,0,0-.01,.01-.09,.41-.35,.74-.76,.99-.41,.24-.84,.29-1.31,.17-.47-.14-.91-.2-1.31-.2-.78,0-1.17,.25-1.17,.75,0,.23,.11,.42,.33,.57,.24,.18,.74,.4,1.5,.66,2.35,.81,3.54,2.18,3.57,4.1,0,1.29-.48,2.32-1.45,3.1-1.02,.82-2.45,1.23-4.27,1.23-1.02,0-2-.14-2.92-.41-.43-.14-.76-.39-.98-.76-.22-.39-.28-.78-.18-1.18,0,0,0-.02,0-.03Z"/>
    <path class="cls-4" d="M153,224.34c1.62,.59,2.8,1.32,3.54,2.18,.78,.9,1.17,1.99,1.17,3.28,0,1.56-.55,2.85-1.65,3.87-1.31,1.22-3.21,1.83-5.7,1.83-.93,0-2.11-.21-3.54-.62-.52-.15-.92-.45-1.18-.9-.26-.47-.33-.94-.2-1.43,0-.01,0-.03,.01-.04,.14-.54,.46-.95,.96-1.23,.5-.28,1.03-.33,1.6-.17,1.09,.34,1.95,.51,2.58,.51,.75,0,1.33-.14,1.74-.42,.4-.26,.6-.63,.6-1.12,0-.42-.17-.78-.52-1.07-.41-.33-1.12-.67-2.13-1.03-3.34-1.19-5.01-3-5.01-5.43,0-1.64,.64-2.97,1.93-3.99,1.28-1.02,2.95-1.54,5.01-1.54,.75,0,1.73,.16,2.96,.47,.55,.13,.96,.43,1.23,.9,.26,.46,.33,.94,.19,1.43,0,.02,0,.03-.01,.05-.14,.49-.44,.87-.9,1.13-.48,.27-.99,.33-1.52,.19-.76-.21-1.43-.32-1.99-.32-.7,0-1.24,.14-1.62,.43-.32,.24-.48,.54-.48,.9,0,.42,.21,.78,.63,1.07,.39,.26,1.16,.61,2.32,1.05Z"/>
    <path class="cls-4" d="M166.55,231.38c.39,.19,.62,.52,.7,.96,.06,.36,.01,.76-.14,1.19-.39,1.06-.99,1.59-1.79,1.59-1.61,0-2.78-.72-3.52-2.15-.57-1.08-.85-2.54-.86-4.38v-3.5h-.22c-.47,0-.85-.15-1.16-.46-.31-.31-.47-.68-.47-1.1v-.03c0-.41,.15-.77,.44-1.07,.32-.33,.71-.49,1.18-.5h.22v-.83c0-.71,.3-1.29,.89-1.75,.58-.45,1.24-.57,1.98-.37,.01,0,.03,0,.04,.01,.5,.13,.9,.39,1.21,.8,.3,.4,.46,.83,.46,1.31v.83h.85c.46,0,.84,.17,1.16,.5,.31,.3,.47,.65,.47,1.07v.03c0,.42-.16,.79-.47,1.09-.31,.31-.7,.47-1.16,.47h-.85c0,1.25,0,2.51,0,3.76,0,1.33,.35,2.17,1.04,2.53Z"/>
    <path class="cls-4" d="M168.93,228.46c0-1.84,.63-3.41,1.88-4.72,1.24-1.3,2.76-1.95,4.54-1.96,1.57,0,2.45,.22,2.64,.65v1.47c0-.47,.17-.87,.52-1.22,.34-.34,.76-.51,1.27-.51h1.04c.52,0,.94,.17,1.28,.51,.36,.36,.53,.77,.53,1.23v10.14c0,.29-.11,.53-.32,.74-.22,.22-.49,.33-.81,.33-.56,0-1.12,0-1.68,0-.36,0-.78-.27-1.28-.8-.14-.14-.29-.22-.46-.24-.17-.03-.33,.01-.47,.11-.96,.62-1.71,.93-2.27,.93-1.79,0-3.3-.65-4.54-1.96-1.25-1.31-1.88-2.88-1.88-4.71Zm4.44-.1c0,.91,.24,1.69,.71,2.32,.46,.58,1,.88,1.62,.88,.39,.06,.77,.03,1.16-.09,.73-.25,1.1-.85,1.13-1.79v-3.14c-.16-.43-.57-.77-1.22-1.03-.75-.29-1.49-.25-2.23,.11-.35,.16-.63,.48-.84,.96-.22,.47-.33,1.01-.33,1.61v.15Z"/>
    <path class="cls-4" d="M191.44,231.38c.39,.19,.62,.52,.7,.96,.06,.36,.01,.76-.14,1.19-.39,1.06-.99,1.59-1.79,1.59-1.61,0-2.78-.72-3.52-2.15-.57-1.08-.85-2.54-.86-4.38v-3.5h-.22c-.47,0-.85-.15-1.16-.46-.31-.31-.47-.68-.47-1.1v-.03c0-.41,.15-.77,.44-1.07,.32-.33,.71-.49,1.18-.5h.22v-.83c0-.71,.3-1.29,.89-1.75,.58-.45,1.24-.57,1.98-.37,.01,0,.03,0,.04,.01,.5,.13,.9,.39,1.21,.8,.3,.4,.46,.83,.46,1.31v.83h.85c.46,0,.84,.17,1.16,.5,.31,.3,.47,.65,.47,1.07v.03c0,.42-.16,.79-.47,1.09-.31,.31-.7,.47-1.16,.47h-.85v3.76c0,1.33,.35,2.17,1.04,2.53Z"/>
    <path class="cls-4" d="M198.18,220.75c-.47,.47-1.04,.7-1.74,.7-.69,0-1.28-.24-1.76-.72-.47-.47-.7-1.02-.7-1.68,0-.65,.23-1.21,.7-1.66,.48-.48,1.07-.72,1.76-.72,.69,0,1.28,.24,1.75,.72,.47,.46,.71,1.01,.71,1.66,0,.65-.24,1.22-.72,1.7Zm-1.7,14.37c-.68,0-1.24-.23-1.7-.69-.46-.46-.69-1-.69-1.64v-8.39c0-.63,.22-1.16,.66-1.61,.47-.47,1.05-.71,1.73-.71h.04c.67,0,1.23,.23,1.69,.69,.47,.47,.7,1.01,.7,1.64,0,2.8,0,5.59,0,8.39,0,.63-.23,1.17-.69,1.61-.47,.47-1.03,.71-1.7,.71-.01,0-.03,0-.04,0Z"/>
    <path class="cls-4" d="M207.78,221.51c1.95,0,3.6,.69,4.95,2.06,1.35,1.35,2.03,2.96,2.03,4.85,0,1.9-.68,3.52-2.03,4.86-1.35,1.37-3,2.06-4.95,2.06-.14,0-.26,0-.37-.01-.13,0-.26,.01-.39,.01-1.94,0-3.58-.68-4.94-2.03-1.35-1.35-2.03-2.98-2.03-4.89,0-1.89,.67-3.5,2.02-4.85,1.36-1.37,3.01-2.06,4.95-2.06,.14,0,.27,0,.39,.01,.11,0,.23-.01,.37-.01Zm-.37,10.17c.75,0,1.41-.31,1.97-.93,.57-.64,.85-1.42,.85-2.34,0-.91-.28-1.69-.85-2.34-.56-.61-1.21-.91-1.97-.91-.75,0-1.41,.31-1.98,.94-.57,.63-.85,1.4-.85,2.31,0,.91,.29,1.69,.86,2.34,.56,.62,1.21,.93,1.97,.93Z"/>
    <path class="cls-4" d="M229.88,233c0,.59-.22,1.11-.66,1.55-.43,.43-.97,.65-1.61,.65h-.04c-.63,0-1.17-.22-1.6-.65-.44-.44-.66-.96-.66-1.55v-4.79c0-1.34-.35-2.18-1.04-2.51-.71-.35-1.46-.28-2.25,.2-.72,.44-1.13,.91-1.22,1.42-.02,.08-.01-.09,.01-.51-.02,.29-.04,.58-.06,.88v5.31c0,.59-.22,1.11-.66,1.55-.43,.43-.96,.65-1.6,.65h-.06c-.63,0-1.17-.22-1.6-.65-.44-.44-.66-.96-.66-1.55v-9.37c0-.41,.15-.77,.46-1.08,.3-.3,.69-.46,1.14-.46h1.46c.45,0,.83,.16,1.14,.48,.29,.29,.43,.63,.43,1.04v-.48c1.29-.76,2.15-1.19,2.58-1.27,2.08-.43,3.73,.11,4.95,1.64,1.02,1.29,1.53,2.95,1.54,4.98,0,1.51,0,3.01,.01,4.52Z"/>
  </g>
</svg>